{"title":"SchindlerÃ‚Â´s.List.1993.SWESUB.DVDRip.XviD.AC3.(5.1).-Zen_Bud","uid":5593289,"size":2206253742,"categoryP":"video","categoryS":"movies","magnet":"?xt=urn:btih:5829d8849f4878a776ec045e782b3d3f0db5d23e&amp;dn=Schindler%C3%82%C2%B4s.List.1993.SWESUB.DVDRip.XviD.AC3.%285.1%29.-Zen_Bud&amp;tr=udp%3A%2F%2Ftracker.openbittorrent.com%3A80&amp;tr=udp%3A%2F%2Fopen.demonii.com%3A1337&amp;tr=udp%3A%2F%2Ftracker.coppersurfer.tk%3A6969&amp;tr=udp%3A%2F%2Fexodus.desync.com%3A6969","seeders":2,"leechers":0,"uploader":"Zen_Bud","files":-1,"time":1274948753,"description":"General\nComplete name                    : Schindler's.List.cd01.avi\nFormat                           : AVI\nFile size                        : 1.37 GiB\nDuration                         : 2h 8mn\nOverall bit rate                 : 1 531 Kbps\n\nVideo\nID                               : 0\nFormat                           : MPEG-4 Visual\nCodec ID/Hint                    : XviD\nDuration                         : 2h 8mn\nBit rate                         : 1 136 Kbps\nWidth                            : 720 pixels\nHeight                           : 552 pixels\nDisplay aspect ratio             : 1.855\nChroma subsampling               : 4:2:0\nBit depth                        : 8 bits\nScan type                        : Progressive\nBits/(Pixel*Frame)               : 0.114\nStream size                      : 1.02 GiB (74%)\nWriting library                  : XviD 1.1.2 (UTC 2006-11-01)\n\nAudio\nID                               : 1\nFormat                           : AC-3\nDuration                         : 2h 8mn\nBit rate mode                    : Constant\nBit rate                         : 384 Kbps\nChannel(s)                       : 6 channels\nChannel positions                : Front: L C R, Side: L R, LFE\nSampling rate                    : 48.0 KHz\nStream size                      : 352 MiB (25%)\n\n******************************************************************\n\nGeneral\nComplete name                    : Schindler's.List.cd02.avi\nFormat                           : AVI\nFormat/Info                      : Audio Video Interleave\nFile size                        : 700 MiB\nDuration                         : 58mn 52s\nOverall bit rate                 : 1 662 Kbps\n\nVideo\nID                               : 0\nFormat                           : MPEG-4 Visual\nCodec ID/Hint                    : XviD\nDuration                         : 58mn 52s\nBit rate                         : 1 267 Kbps\nWidth                            : 720 pixels\nHeight                           : 552 pixels\nDisplay aspect ratio             : 1.855\nChroma subsampling               : 4:2:0\nBit depth                        : 8 bits\nScan type                        : Progressive\nBits/(Pixel*Frame)               : 0.128\nStream size                      : 533 MiB (76%)\nWriting library                  : XviD 1.1.2 (UTC 2006-11-01)\n\nAudio\nID                               : 1\nFormat                           : AC-3\nDuration                         : 58mn 52s\nBit rate                         : 384 Kbps\nChannel(s)                       : 6 channels\nChannel positions                : Front: L C R, Side: L R, LFE\nSampling rate                    : 48.0 KHz\nStream size                      : 162 MiB (23%)\n\n\n","torrent":{"xt":"urn:btih:5829d8849f4878a776ec045e782b3d3f0db5d23e","amp;dn":"Schindler%C3%82%C2%B4s.List.1993.SWESUB.DVDRip.XviD.AC3.%285.1%29.-Zen_Bud","amp;tr":["udp%3A%2F%2Ftracker.openbittorrent.com%3A80","udp%3A%2F%2Fopen.demonii.com%3A1337","udp%3A%2F%2Ftracker.coppersurfer.tk%3A6969","udp%3A%2F%2Fexodus.desync.com%3A6969"],"infoHash":"5829d8849f4878a776ec045e782b3d3f0db5d23e","infoHashBuffer":{"type":"Buffer","data":[88,41,216,132,159,72,120,167,118,236,4,94,120,43,61,63,13,181,210,62]},"announce":[],"urlList":[]}}